<svg xmlns="http://www.w3.org/2000/svg" width="278.243" height="192.206" viewBox="0 0 278.243 192.206">
  <g id="Group_16" data-name="Group 16" transform="translate(-67.407 -25.983)">
    <g id="Group_13" data-name="Group 13" transform="translate(67.407 25.983)">
      <path id="Path_18" data-name="Path 18" d="M345.638,120.758c-.457-19.736-13.537-39.243-40.739-39.243h-11c-.384-6.708-3.181-16.962-14.495-27.211-19.241-17.442-46.317-4.218-46.317-4.218s-8.609-24.1-43.764-24.1c-.837,0-1.694.02-2.554.045-41.1,1.328-44.51,39.1-44.51,39.1-23.409-5.617-31.52,8.794-33.96,15.47-27.261.207-41.117,20.193-40.892,41.544.118,21.681,14.231,40.617,41.319,40.617a41.707,41.707,0,0,0,19.245-4.7c.678-.177,1.048-.284,1.048-.284s.6,21.053,24.655,25.262c24.071,4.218,37.308-16.241,37.308-16.241s0,18.649,36.687,24.068S275.8,166.191,275.8,166.191c16.275,5.555,25.969.4,31.007-4.382C333.61,160.895,346.086,140.713,345.638,120.758Z" transform="translate(-67.407 -25.983)" fill="#004490"/>
      <g id="Group_12" data-name="Group 12" transform="translate(12.549 67.474)">
        <path id="Path_19" data-name="Path 19" d="M121.182,103.8a28.3,28.3,0,0,1-20.012,8.234C82.649,112.039,73,99.1,72.927,84.271c-.164-14.674,9.41-28.4,28.244-28.4A28.321,28.321,0,0,1,121.182,64.1l-2.906,2.517a24.042,24.042,0,0,0-17.105-6.986c-16.007,0-24.246,11.3-24.166,24.482.155,12.871,8.314,24.009,24.166,24.009a24.566,24.566,0,0,0,17.185-6.986Z" transform="translate(-72.925 -55.385)" fill="#fff"/>
        <path id="Path_20" data-name="Path 20" d="M97.419,102.277h8.241V65.555H97.114V56.141h18.831v46.136h7.607v8.791H97.419Z" transform="translate(-42.108 -55.035)" fill="#fff"/>
        <path id="Path_21" data-name="Path 21" d="M112.432,80.217c0-32.789,48.171-32.712,48.171,0v7.93c0,32.719-48.171,32.792-48.171,0Zm10.276,7.93c0,19.93,27.618,19.93,27.618,0v-7.93c0-19.607-27.618-19.846-27.618,0Z" transform="translate(-22.592 -55.654)" fill="#fff"/>
        <path id="Path_22" data-name="Path 22" d="M181.4,56.141V90.272c0,28.717-42.056,28.8-42.056,0V56.141H143.5V90.272c0,23.614,33.733,23.541,33.733,0V56.141Z" transform="translate(11.697 -55.035)" fill="#fff"/>
        <path id="Path_23" data-name="Path 23" d="M210.912,82.981c.314,13.963-8.625,28.087-27.857,28.087h-18.59V56.141h18.59C201.659,56.141,210.6,69.48,210.912,82.981ZM168.7,60.141v46.845h14.354c16.321,0,23.855-12.239,23.618-24-.237-11.461-7.773-22.84-23.618-22.84Z" transform="translate(43.7 -55.035)" fill="#fff"/>
      </g>
    </g>
    <g id="Group_15" data-name="Group 15" transform="translate(129.545 194.903)">
      <g id="Group_14" data-name="Group 14">
        <path id="Path_24" data-name="Path 24" d="M106.114,100.3V116.2H105.02v-2.474a5.3,5.3,0,0,1-4.682,2.654,5.791,5.791,0,0,1,.032-11.577,4.948,4.948,0,0,1,4.65,2.638V100.3ZM95.828,110.587a4.343,4.343,0,0,0,4.582,4.689,4.708,4.708,0,0,0,0-9.412A4.35,4.35,0,0,0,95.828,110.587Z" transform="translate(-94.732 -100.218)" fill="#004490"/>
        <path id="Path_25" data-name="Path 25" d="M101.365,108.069a5.642,5.642,0,0,1,5.7-5.79c3.145,0,5.965,1.928,5.53,6.315H102.5a4.415,4.415,0,0,0,4.569,4.15,5.273,5.273,0,0,0,4.041-1.7l.782.634a6.133,6.133,0,0,1-4.823,2.156A5.5,5.5,0,0,1,101.365,108.069Zm10.233-.455c-.02-2.772-1.833-4.314-4.53-4.314a4.484,4.484,0,0,0-4.569,4.314Z" transform="translate(-86.281 -97.699)" fill="#004490"/>
        <path id="Path_26" data-name="Path 26" d="M116.143,104.505a4.821,4.821,0,0,0-3.5-1.183c-1.746-.023-3.432.634-3.382,2.065.041,1.5,2,1.794,3.411,2.044,1.99.337,4.739.68,4.623,3.3-.061,2.472-2.633,3.129-4.612,3.129a5.762,5.762,0,0,1-4.9-2.251l.812-.725a4.984,4.984,0,0,0,4.116,1.908c1.36,0,3.429-.364,3.491-2.129.046-1.617-1.817-1.931-3.65-2.226-2.176-.364-4.343-.78-4.355-3.018-.03-2.208,2.179-3.156,4.446-3.136a5.887,5.887,0,0,1,4.175,1.5Z" transform="translate(-78.101 -97.699)" fill="#004490"/>
        <path id="Path_27" data-name="Path 27" d="M115.207,101.247a.893.893,0,0,1-1.785,0A.893.893,0,0,1,115.207,101.247Zm-1.474,3.609v11.261h1.11V104.856Z" transform="translate(-70.92 -100.139)" fill="#004490"/>
        <path id="Path_28" data-name="Path 28" d="M125.273,102.158l.725.639-1.089,1.264a5.528,5.528,0,0,1-1.633,8.589,4.113,4.113,0,0,1,3.068,4.018c0,3.015-2.365,4.471-5.342,4.471s-5.305-1.633-5.305-4.471h1.117c0,2.288,1.944,3.379,4.189,3.379s4.246-.992,4.246-3.379c0-2.41-2.151-3.359-4.246-3.359a5.452,5.452,0,0,1,0-10.9,5.716,5.716,0,0,1,3.184,1.016Zm-8.421,5.728A4.106,4.106,0,0,0,121,112.2a4.3,4.3,0,0,0,4.2-4.309,4.033,4.033,0,0,0-4.2-4.362C118.715,103.525,116.852,104.955,116.852,107.886Z" transform="translate(-68.022 -97.853)" fill="#004490"/>
        <path id="Path_29" data-name="Path 29" d="M122.959,102.468v2a4.467,4.467,0,0,1,4-2.2c3,0,5.057,1.835,5.057,4.946v6.472H130.9v-6.449c0-2.542-1.558-3.9-3.984-3.882a3.9,3.9,0,0,0-3.934,4.086v6.244h-1.117v-11.22Z" transform="translate(-60.164 -97.711)" fill="#004490"/>
        <path id="Path_30" data-name="Path 30" d="M141.531,104.192c0-2.508-1.949-2.927-4.061-2.927-3.043,0-4.493,1.4-4.471,3.2.018,2.424,2.611,3.175,4.514,3.175h6.745v.973h-1.449v3.477c0,1.7.378,3.222,1.972,3.2v.955a2.407,2.407,0,0,1-2.656-2.019,4.984,4.984,0,0,1-4.673,2.226c-3.864,0-5.89-1.71-5.89-4.432a4.335,4.335,0,0,1,3.209-3.882,3.886,3.886,0,0,1-2.927-3.654c0-2.447,2.019-4.216,5.649-4.216,2.54,0,5.112.653,5.112,3.927Zm.28,4.418h-4.359c-3.143,0-4.728,1.776-4.728,3.407,0,2.042,1.5,3.356,4.7,3.356,1.822,0,4.389-.634,4.389-3.286Z" transform="translate(-47.809 -100.265)" fill="#004490"/>
        <path id="Path_31" data-name="Path 31" d="M154.575,113.577H153.35l-1.822-4.905-1.36-4.357-1.4,4.38-1.817,4.882h-1.226l-3.991-11.22h1.221l3.388,9.922,3.422-9.922h.8l3.4,9.922,3.359-9.922h1.228Z" transform="translate(-34.85 -97.6)" fill="#004490"/>
        <path id="Path_32" data-name="Path 32" d="M150.149,108.069a5.645,5.645,0,0,1,5.7-5.79c3.154,0,5.967,1.928,5.54,6.315H151.281a4.416,4.416,0,0,0,4.569,4.15,5.231,5.231,0,0,0,4.034-1.7l.8.634a6.143,6.143,0,0,1-4.83,2.156A5.5,5.5,0,0,1,150.149,108.069Zm10.235-.455c-.016-2.772-1.833-4.314-4.534-4.314a4.485,4.485,0,0,0-4.569,4.314Z" transform="translate(-24.129 -97.699)" fill="#004490"/>
        <path id="Path_33" data-name="Path 33" d="M157.951,100.3v7.134A4.95,4.95,0,0,1,162.6,104.8a5.791,5.791,0,0,1,.018,11.577,5.285,5.285,0,0,1-4.671-2.654V116.2h-1.089V100.3Zm.02,10.265a4.47,4.47,0,0,0,4.582,4.71,4.708,4.708,0,0,0,0-9.412A4.492,4.492,0,0,0,157.972,110.567Z" transform="translate(-15.576 -100.218)" fill="#004490"/>
      </g>
    </g>
  </g>
</svg>
